<svg width="896" height="253" viewBox="0 0 896 253" fill="none" xmlns="http://www.w3.org/2000/svg">
    <g clip-path="url(#clip0_1_614)">
        <rect width="896" height="253" rx="12" fill="#FAF5FE"/>
        <g clip-path="url(#clip1_1_614)">
            <g opacity="0.1">
                <path fill-rule="evenodd" clip-rule="evenodd"
                      d="M1065.64 -34.1057C989.527 -116.233 685.075 -2.89714 685.075 -2.89714C685.075 -2.89714 719.822 85.8008 776.08 120.294C832.337 154.788 931.615 130.15 991.182 39.8093C1050.75 -50.5313 1065.64 -34.1057 1065.64 -34.1057ZM1098.73 -34.1057C1174.85 -116.233 1479.3 -2.89714 1479.3 -2.89714C1479.3 -2.89714 1444.55 85.8008 1388.29 120.294C1332.04 154.788 1232.76 130.15 1173.19 39.8093C1113.62 -50.5313 1098.73 -34.1057 1098.73 -34.1057Z"
                      fill="#64189B"/>
                <mask id="mask0_1_614" maskUnits="userSpaceOnUse" x="872"
                      y="-23" width="423" height="283">
                    <path
                            d="M872.089 146.574C873.743 148.216 875.398 151.501 877.053 153.144C928.346 210.633 936.619 156.429 976.33 171.212C1016.04 185.995 986.258 217.204 1027.62 241.842C1067.34 268.123 1078.92 256.625 1078.92 256.625V-22.6094C1073.95 -19.3243 1068.99 -17.6817 1064.03 -19.3243C1059.06 -17.6817 1052.44 -11.1115 1050.79 -7.82635C1034.24 8.5992 1021.01 28.3098 1007.77 48.0205C979.64 90.7269 939.928 125.221 890.29 141.646C883.671 143.289 877.053 144.931 872.089 146.574ZM1294.02 146.574C1292.36 148.216 1290.71 151.501 1289.06 153.144C1237.76 210.633 1229.49 156.429 1189.78 171.212C1150.07 185.995 1179.85 217.204 1138.48 241.842C1098.77 268.123 1087.19 256.625 1087.19 256.625V-22.6094C1092.15 -19.3243 1097.12 -17.6817 1102.08 -19.3243C1107.05 -17.6817 1113.66 -11.1115 1115.32 -7.82635C1131.87 8.5992 1145.1 28.3098 1158.34 48.0205C1186.47 90.7269 1226.18 125.221 1275.82 141.646C1280.78 143.289 1287.4 144.931 1294.02 146.574Z"
                            fill="white"/>
                </mask>
                <g mask="url(#mask0_1_614)">
                    <path d="M872.089 -22.6094L1294.02 -22.6094V268.123H872.089V-22.6094Z" fill="#64189B"/>
                </g>
                <mask id="mask1_1_614" maskUnits="userSpaceOnUse" x="794"
                      y="200" width="244" height="266">
                    <path
                            d="M833.967 200.777C837.277 200.777 838.931 202.42 842.241 202.42C918.354 215.56 876.988 250.054 910.081 276.335C943.173 302.616 954.756 261.552 997.776 281.263C1040.8 300.973 1037.49 315.756 1037.49 315.756L799.22 465.229C800.875 458.658 797.566 453.731 794.256 450.446C794.256 445.518 795.911 435.663 795.911 432.378C800.875 411.024 810.803 388.029 820.73 366.675C842.241 320.684 850.514 268.122 837.277 218.845C837.277 212.275 835.622 207.348 833.967 200.777Z"
                            fill="white"/>
                </mask>
                <g mask="url(#mask1_1_614)">
                    <path d="M794.27 200.775H1040.81V465.227H794.27V200.775Z" fill="#64189B"/>
                </g>
                <path fill-rule="evenodd" clip-rule="evenodd"
                      d="M782.704 460.301C671.844 440.59 605.659 125.22 605.659 125.22C605.659 125.22 699.973 107.151 759.539 136.717C819.106 164.641 850.544 261.552 805.869 360.105C761.194 457.016 782.704 460.301 782.704 460.301Z"
                      fill="#64189B"/>
                <path fill-rule="evenodd" clip-rule="evenodd"
                      d="M206.894 841.374C274.734 956.353 810.834 954.71 906.803 946.497C958.096 941.57 979.607 869.297 992.844 783.885C986.225 777.314 977.952 772.387 971.334 765.816C936.586 736.25 903.494 705.042 873.71 672.191C845.582 642.625 805.87 593.348 789.324 545.714L324.373 783.885L321.064 777.314L312.79 765.816L309.481 759.246L726.448 447.161C690.046 412.667 663.572 355.178 648.681 317.399C632.134 276.335 617.243 231.986 605.66 189.28C604.005 181.067 600.696 171.212 599.042 162.999C517.965 138.36 440.197 126.863 415.378 169.569C365.739 251.697 130.781 731.323 206.894 841.374Z"
                      fill="#64189B"/>
            </g>
        </g>
    </g>
    <defs>
        <clipPath id="clip0_1_614">
            <rect width="896" height="253" rx="12" fill="white"/>
        </clipPath>
        <clipPath id="clip1_1_614">
            <rect width="681" height="1104" fill="white" transform="translate(215 -695)"/>
        </clipPath>
    </defs>
</svg>